<?xml version="1.0" standalone="no"?>
<!DOCTYPE svg PUBLIC "-//W3C//DTD SVG 20010904//EN"
 "http://www.w3.org/TR/2001/REC-SVG-20010904/DTD/svg10.dtd">
<svg version="1.0" xmlns="http://www.w3.org/2000/svg"
 width="457.000000pt" height="304.000000pt" viewBox="0 0 457.000000 304.000000"
 preserveAspectRatio="xMidYMid meet">

<g transform="translate(0.000000,304.000000) scale(0.100000,-0.100000)"
fill="#000000" stroke="none">
<path d="M2627 2946 c-40 -39 -77 -111 -77 -147 0 -36 38 -68 106 -88 107 -31
86 -70 -153 -278 -195 -172 -321 -263 -505 -368 -330 -188 -512 -328 -602
-463 -185 -279 -245 -600 -175 -947 29 -146 74 -232 168 -325 134 -134 303
-198 491 -187 52 3 114 12 138 21 149 54 342 261 416 448 67 171 79 408 30
613 -5 19 0 20 168 20 194 0 268 15 361 75 26 16 49 30 51 30 2 0 21 -22 42
-50 63 -83 93 -59 49 38 l-27 60 109 109 c129 128 216 246 278 374 54 114 71
178 86 323 13 127 7 257 -16 334 -26 85 -97 152 -164 152 -66 0 -268 -118
-423 -247 -212 -176 -252 -348 -146 -623 70 -183 83 -230 66 -246 -31 -31
-158 -58 -273 -58 -178 0 -290 42 -395 148 -30 31 -59 56 -66 56 -23 0 -44
-38 -60 -109 -21 -92 -12 -125 54 -203 142 -169 211 -378 177 -540 -30 -144
-143 -283 -287 -352 -93 -44 -152 -57 -260 -58 -247 0 -389 117 -460 379 -16
62 -21 108 -22 223 -1 205 26 294 136 460 94 141 176 210 443 375 432 266 687
464 820 636 57 73 195 308 195 332 0 29 -50 72 -113 95 -84 32 -119 29 -160
-12z m824 -548 c40 -74 -54 -323 -182 -483 -74 -93 -251 -255 -279 -255 -9 0
-46 84 -68 154 -23 77 -21 172 6 226 45 92 155 202 297 294 130 86 203 107
226 64z"/>
</g>
</svg>
